# xmcd CD database file
#
# Track frame offsets:
#	150
#	2013
#	17111
#	35978
#	48021
#	63859
#	80566
#	96876
#	112976
#	131432
#	147454
#	166161
#	183086
#	199797
#
# Disc length: 3199 seconds
#
# Revision: 1
# Processed by: cddbd v1.5.2PL0 Copyright (c) Steve Scherf et al.
# Submitted via: CDex 1.70beta2
#
DISCID=b20c7d0e
DTITLE=Alesha Dixon - The Alesha Show
DYEAR=2008
DGENRE=R&B
TTITLE0=Welcome To The Alesha Show
TTITLE1=Let's Get Excited
TTITLE2=Breathe Slow
TTITLE3=Cinderella Shoe
TTITLE4=The Boy Does Nothing
TTITLE5=Chasing Ghosts
TTITLE6=Play Me
TTITLE7=Hand It Over
TTITLE8=Do You Know The Way It Feels
TTITLE9=Can I Begin
TTITLE10=Italians Do It Better
TTITLE11=Ooh Baby I Like It Like That
TTITLE12=Don't Ever Let Me Go
TTITLE13=I'm Thru
EXTD=YEAR: 2008
EXTT0=
EXTT1=
EXTT2=
EXTT3=
EXTT4=
EXTT5=
EXTT6=
EXTT7=
EXTT8=
EXTT9=
EXTT10=
EXTT11=
EXTT12=
EXTT13=
PLAYORDER=
